<svg width="43" height="43" viewBox="0 0 43 43" fill="none" xmlns="http://www.w3.org/2000/svg">
<path d="M21.4379 30.1239C14.4663 30.153 8.63998 35.0347 7.14161 41.5752L7.12272 41.6744C7.10673 41.7443 7.09801 41.8245 7.09801 41.9076C7.09801 42.511 7.58633 43.0008 8.188 43.0008C8.70684 43.0008 9.14138 42.6364 9.25038 42.1481L9.25183 42.1408C10.5235 36.4778 15.4967 32.3104 21.4394 32.3104C27.382 32.3104 32.3553 36.4778 33.6109 42.0577L33.6269 42.1408C33.7374 42.6364 34.1704 43.0008 34.6907 43.0008C34.7736 43.0008 34.855 42.9906 34.932 42.9731L34.9247 42.9746C35.4188 42.8638 35.7822 42.428 35.7822 41.9061C35.7822 41.823 35.7735 41.7429 35.756 41.6656L35.7575 41.6729C34.2388 35.0347 28.4109 30.153 21.4437 30.1224H21.4408L21.4379 30.1239ZM11.503 13.632C15.2555 13.632 18.2987 10.5811 18.2987 6.81599C18.2987 3.05087 15.2569 0 11.503 0C7.75055 0 4.7073 3.05087 4.7073 6.81599C4.71166 10.5782 7.75346 13.6276 11.503 13.632ZM11.503 2.18648C14.0521 2.18648 16.1188 4.25927 16.1188 6.81599C16.1188 9.37272 14.0521 11.4455 11.503 11.4455C8.9539 11.4455 6.88728 9.37272 6.88728 6.81599C6.89019 4.26073 8.95681 2.1894 11.503 2.18648ZM31.5036 13.632C35.2561 13.632 38.2993 10.5811 38.2993 6.81599C38.2993 3.05087 35.2575 0 31.5036 0C27.7511 0 24.7079 3.05087 24.7079 6.81599C24.7122 10.5782 27.754 13.6276 31.5036 13.632ZM31.5036 2.18648C34.0527 2.18648 36.1193 4.25927 36.1193 6.81599C36.1193 9.37272 34.0527 11.4455 31.5036 11.4455C28.9545 11.4455 26.8879 9.37272 26.8879 6.81599C26.8908 4.26073 28.9559 2.1894 31.5036 2.18648ZM42.979 27.0978C41.703 21.4217 36.7181 17.2455 30.7624 17.2455C30.1477 17.2455 29.5431 17.2907 28.9516 17.3752L29.0184 17.3665C28.9472 17.384 28.8847 17.4073 28.8251 17.435L28.831 17.4321C27.7395 14.3287 24.8416 12.1452 21.435 12.1452C18.043 12.1452 15.1552 14.3098 14.0696 17.3359L14.0521 17.3913C14.0274 17.3854 14.0085 17.3709 13.9838 17.3665C13.4621 17.2892 12.8604 17.2441 12.2471 17.2441H12.2369C6.28997 17.2703 1.32107 21.4334 0.0406929 27.0118L0.0247065 27.0963C0.00872003 27.1663 0 27.2465 0 27.3296C0 27.933 0.488315 28.4228 1.08999 28.4228C1.60882 28.4228 2.04337 28.0584 2.15237 27.5701L2.15382 27.5628C3.22492 22.8881 7.32764 19.4509 12.2355 19.4305H12.2384C12.7253 19.4305 13.2034 19.4655 13.6699 19.5326L13.6162 19.5267C13.6045 19.7002 13.5638 19.8649 13.5638 20.0428C13.5726 24.3968 17.0939 27.9228 21.4365 27.9228C25.779 27.9228 29.3004 24.3968 29.3076 20.0428C29.3076 19.8678 29.2669 19.7017 29.2553 19.5282C29.2786 19.5253 29.3004 19.5355 29.3236 19.5297C29.7509 19.4655 30.245 19.4305 30.7479 19.4305C30.7537 19.4305 30.7581 19.4305 30.7639 19.4305C35.6746 19.4495 39.7774 22.8866 40.8339 27.4928L40.847 27.5628C40.9574 28.0584 41.392 28.4214 41.9108 28.4228C41.9937 28.4228 42.0736 28.4126 42.1506 28.3951L42.1434 28.3966C42.6375 28.2858 43.0008 27.85 43.0008 27.3281C43.0008 27.245 42.9921 27.1649 42.9747 27.0876L42.9761 27.0949L42.979 27.0978ZM21.4379 25.7509C18.2944 25.7509 15.7438 23.1957 15.7438 20.0413C15.7438 16.8869 18.2929 14.3317 21.4365 14.3317C24.58 14.3317 27.1291 16.8884 27.1291 20.0413C27.1248 23.1927 24.58 25.7466 21.4379 25.7509Z" fill="#BA1719"/>
</svg>
