<svg width="28" height="28" viewBox="0 0 28 28" fill="none" xmlns="http://www.w3.org/2000/svg">
<path d="M27.5898 16.0174C27.8164 16.0174 28 15.8338 28 15.6073V1.03414C28 0.463914 27.5361 0 26.9659 0H6.0282C5.45798 0 4.99406 0.463914 4.99406 1.03414V2.49703H3.53117C2.96095 2.49703 2.49703 2.96095 2.49703 3.53117V4.99406H1.03414C0.463914 4.99406 0 5.45803 0 6.0282V26.9659C0 27.5361 0.463914 28 1.03414 28H21.9718C22.542 28 23.0059 27.5361 23.0059 26.9659V25.503H24.4688C25.0391 25.503 25.503 25.0391 25.503 24.4688V23.0059H26.9659C27.5361 23.0059 28 22.542 28 21.9718V17.5213C28 17.2948 27.8164 17.1112 27.5898 17.1112C27.3633 17.1112 27.1797 17.2948 27.1797 17.5213V21.9718C27.1797 22.0897 27.0838 22.1856 26.9659 22.1856H25.503V3.53117C25.503 2.96095 25.0391 2.49703 24.4688 2.49703H12.46C12.2335 2.49703 12.0498 2.68062 12.0498 2.90719C12.0498 3.13376 12.2335 3.31734 12.46 3.31734H24.4688C24.5867 3.31734 24.6827 3.41327 24.6827 3.53117V24.4688C24.6827 24.5867 24.5867 24.6827 24.4688 24.6827H23.0059V6.0282C23.0059 5.45798 22.542 4.99406 21.9718 4.99406H3.31734V3.53117C3.31734 3.41327 3.41327 3.31734 3.53117 3.31734H10.5459C10.7725 3.31734 10.9561 3.13376 10.9561 2.90719C10.9561 2.68062 10.7725 2.49703 10.5459 2.49703H5.81437V1.03414C5.81437 0.916234 5.9103 0.820312 6.0282 0.820312H26.9659C27.0838 0.820312 27.1797 0.916234 27.1797 1.03414V15.6073C27.1797 15.8338 27.3633 16.0174 27.5898 16.0174ZM11.6377 5.81437L7.04298 10.4096C6.8828 10.5698 6.88286 10.8295 7.04298 10.9896C7.1231 11.0697 7.22805 11.1097 7.33299 11.1097C7.43794 11.1097 7.54294 11.0697 7.62305 10.9896L9.91047 8.70187L12.5156 11.307L3.61293 20.2446L1.01527 17.6469L3.88489 14.7272C3.88516 14.7269 3.88544 14.7267 3.88571 14.7264L6.26954 12.3425C6.42972 12.1823 6.42972 11.9226 6.26954 11.7625C6.10936 11.6023 5.84965 11.6023 5.68952 11.7625L3.59822 13.8538L1.04109 11.2525L6.42791 5.81437H11.6377ZM13.3931 5.81437L21.9645 14.4381L19.408 17.0393L10.4905 8.12186L12.7978 5.81437H13.3931ZM19.7622 5.81437L21.9667 8.06526L19.3914 10.6856L14.5497 5.81437H19.7622ZM22.1856 26.1878L19.9892 23.9914L22.1856 21.7547V26.1878ZM22.1856 19.8603L19.9857 17.6219L22.1856 15.3834V19.8603ZM22.1856 13.497L19.9696 11.2675L22.1856 9.01277V13.497ZM15.6468 27.1797H10.5446L13.0957 24.6286L15.6468 27.1797ZM9.38602 27.1782C9.38552 27.1786 9.38509 27.1792 9.38459 27.1797H4.17386L9.9103 21.4432L12.5156 24.0485L9.38602 27.1782ZM3.598 26.5954L1.04152 23.9943L9.91113 15.0734L12.5156 17.6778L3.598 26.5954ZM0.820312 6.0282C0.820312 5.98358 0.834094 5.94218 0.857555 5.90789L3.0293 8.07964L0.820312 10.3097V6.0282ZM0.820312 12.1982L3.02055 14.4365L0.820312 16.6751V12.1982ZM0.820312 18.6121L3.0345 20.8264L0.820312 23.0534V18.6121ZM3.60664 7.49689L1.92418 5.81437H5.2733L3.60664 7.49689ZM0.820312 26.9659V24.9395L3.02214 27.1797H1.03414C0.916234 27.1797 0.820312 27.0838 0.820312 26.9659ZM16.8069 27.1797L10.4904 20.8632L13.0956 18.258L15.087 20.2494C15.167 20.3294 15.272 20.3695 15.377 20.3695C15.4819 20.3695 15.5869 20.3294 15.667 20.2494C15.8272 20.0891 15.8272 19.8295 15.667 19.6693L10.4903 14.4925L13.0956 11.8872L21.9662 20.8074L19.4091 23.4114L17.0205 21.0228C16.8604 20.8627 16.6007 20.8627 16.4405 21.0228C16.2803 21.183 16.2803 21.4427 16.4405 21.6029L22.0131 27.1755C21.9997 27.1782 21.986 27.1797 21.9717 27.1797H16.8069ZM22.1856 6.0282V7.11648L20.9104 5.81437H21.9718C22.0897 5.81437 22.1856 5.9103 22.1856 6.0282Z" fill="url(#paint0_linear_6486_13023)"/>
<path d="M27.5898 16.0174C27.8164 16.0174 28 15.8338 28 15.6073V1.03414C28 0.463914 27.5361 0 26.9659 0H6.0282C5.45798 0 4.99406 0.463914 4.99406 1.03414V2.49703H3.53117C2.96095 2.49703 2.49703 2.96095 2.49703 3.53117V4.99406H1.03414C0.463914 4.99406 0 5.45803 0 6.0282V26.9659C0 27.5361 0.463914 28 1.03414 28H21.9718C22.542 28 23.0059 27.5361 23.0059 26.9659V25.503H24.4688C25.0391 25.503 25.503 25.0391 25.503 24.4688V23.0059H26.9659C27.5361 23.0059 28 22.542 28 21.9718V17.5213C28 17.2948 27.8164 17.1112 27.5898 17.1112C27.3633 17.1112 27.1797 17.2948 27.1797 17.5213V21.9718C27.1797 22.0897 27.0838 22.1856 26.9659 22.1856H25.503V3.53117C25.503 2.96095 25.0391 2.49703 24.4688 2.49703H12.46C12.2335 2.49703 12.0498 2.68062 12.0498 2.90719C12.0498 3.13376 12.2335 3.31734 12.46 3.31734H24.4688C24.5867 3.31734 24.6827 3.41327 24.6827 3.53117V24.4688C24.6827 24.5867 24.5867 24.6827 24.4688 24.6827H23.0059V6.0282C23.0059 5.45798 22.542 4.99406 21.9718 4.99406H3.31734V3.53117C3.31734 3.41327 3.41327 3.31734 3.53117 3.31734H10.5459C10.7725 3.31734 10.9561 3.13376 10.9561 2.90719C10.9561 2.68062 10.7725 2.49703 10.5459 2.49703H5.81437V1.03414C5.81437 0.916234 5.9103 0.820312 6.0282 0.820312H26.9659C27.0838 0.820312 27.1797 0.916234 27.1797 1.03414V15.6073C27.1797 15.8338 27.3633 16.0174 27.5898 16.0174ZM11.6377 5.81437L7.04298 10.4096C6.8828 10.5698 6.88286 10.8295 7.04298 10.9896C7.1231 11.0697 7.22805 11.1097 7.33299 11.1097C7.43794 11.1097 7.54294 11.0697 7.62305 10.9896L9.91047 8.70187L12.5156 11.307L3.61293 20.2446L1.01527 17.6469L3.88489 14.7272C3.88516 14.7269 3.88544 14.7267 3.88571 14.7264L6.26954 12.3425C6.42972 12.1823 6.42972 11.9226 6.26954 11.7625C6.10936 11.6023 5.84965 11.6023 5.68952 11.7625L3.59822 13.8538L1.04109 11.2525L6.42791 5.81437H11.6377ZM13.3931 5.81437L21.9645 14.4381L19.408 17.0393L10.4905 8.12186L12.7978 5.81437H13.3931ZM19.7622 5.81437L21.9667 8.06526L19.3914 10.6856L14.5497 5.81437H19.7622ZM22.1856 26.1878L19.9892 23.9914L22.1856 21.7547V26.1878ZM22.1856 19.8603L19.9857 17.6219L22.1856 15.3834V19.8603ZM22.1856 13.497L19.9696 11.2675L22.1856 9.01277V13.497ZM15.6468 27.1797H10.5446L13.0957 24.6286L15.6468 27.1797ZM9.38602 27.1782C9.38552 27.1786 9.38509 27.1792 9.38459 27.1797H4.17386L9.9103 21.4432L12.5156 24.0485L9.38602 27.1782ZM3.598 26.5954L1.04152 23.9943L9.91113 15.0734L12.5156 17.6778L3.598 26.5954ZM0.820312 6.0282C0.820312 5.98358 0.834094 5.94218 0.857555 5.90789L3.0293 8.07964L0.820312 10.3097V6.0282ZM0.820312 12.1982L3.02055 14.4365L0.820312 16.6751V12.1982ZM0.820312 18.6121L3.0345 20.8264L0.820312 23.0534V18.6121ZM3.60664 7.49689L1.92418 5.81437H5.2733L3.60664 7.49689ZM0.820312 26.9659V24.9395L3.02214 27.1797H1.03414C0.916234 27.1797 0.820312 27.0838 0.820312 26.9659ZM16.8069 27.1797L10.4904 20.8632L13.0956 18.258L15.087 20.2494C15.167 20.3294 15.272 20.3695 15.377 20.3695C15.4819 20.3695 15.5869 20.3294 15.667 20.2494C15.8272 20.0891 15.8272 19.8295 15.667 19.6693L10.4903 14.4925L13.0956 11.8872L21.9662 20.8074L19.4091 23.4114L17.0205 21.0228C16.8604 20.8627 16.6007 20.8627 16.4405 21.0228C16.2803 21.183 16.2803 21.4427 16.4405 21.6029L22.0131 27.1755C21.9997 27.1782 21.986 27.1797 21.9717 27.1797H16.8069ZM22.1856 6.0282V7.11648L20.9104 5.81437H21.9718C22.0897 5.81437 22.1856 5.9103 22.1856 6.0282Z" fill="black" fill-opacity="0.2"/>
<path d="M27.5898 16.0174C27.8164 16.0174 28 15.8338 28 15.6073V1.03414C28 0.463914 27.5361 0 26.9659 0H6.0282C5.45798 0 4.99406 0.463914 4.99406 1.03414V2.49703H3.53117C2.96095 2.49703 2.49703 2.96095 2.49703 3.53117V4.99406H1.03414C0.463914 4.99406 0 5.45803 0 6.0282V26.9659C0 27.5361 0.463914 28 1.03414 28H21.9718C22.542 28 23.0059 27.5361 23.0059 26.9659V25.503H24.4688C25.0391 25.503 25.503 25.0391 25.503 24.4688V23.0059H26.9659C27.5361 23.0059 28 22.542 28 21.9718V17.5213C28 17.2948 27.8164 17.1112 27.5898 17.1112C27.3633 17.1112 27.1797 17.2948 27.1797 17.5213V21.9718C27.1797 22.0897 27.0838 22.1856 26.9659 22.1856H25.503V3.53117C25.503 2.96095 25.0391 2.49703 24.4688 2.49703H12.46C12.2335 2.49703 12.0498 2.68062 12.0498 2.90719C12.0498 3.13376 12.2335 3.31734 12.46 3.31734H24.4688C24.5867 3.31734 24.6827 3.41327 24.6827 3.53117V24.4688C24.6827 24.5867 24.5867 24.6827 24.4688 24.6827H23.0059V6.0282C23.0059 5.45798 22.542 4.99406 21.9718 4.99406H3.31734V3.53117C3.31734 3.41327 3.41327 3.31734 3.53117 3.31734H10.5459C10.7725 3.31734 10.9561 3.13376 10.9561 2.90719C10.9561 2.68062 10.7725 2.49703 10.5459 2.49703H5.81437V1.03414C5.81437 0.916234 5.9103 0.820312 6.0282 0.820312H26.9659C27.0838 0.820312 27.1797 0.916234 27.1797 1.03414V15.6073C27.1797 15.8338 27.3633 16.0174 27.5898 16.0174ZM11.6377 5.81437L7.04298 10.4096C6.8828 10.5698 6.88286 10.8295 7.04298 10.9896C7.1231 11.0697 7.22805 11.1097 7.33299 11.1097C7.43794 11.1097 7.54294 11.0697 7.62305 10.9896L9.91047 8.70187L12.5156 11.307L3.61293 20.2446L1.01527 17.6469L3.88489 14.7272C3.88516 14.7269 3.88544 14.7267 3.88571 14.7264L6.26954 12.3425C6.42972 12.1823 6.42972 11.9226 6.26954 11.7625C6.10936 11.6023 5.84965 11.6023 5.68952 11.7625L3.59822 13.8538L1.04109 11.2525L6.42791 5.81437H11.6377ZM13.3931 5.81437L21.9645 14.4381L19.408 17.0393L10.4905 8.12186L12.7978 5.81437H13.3931ZM19.7622 5.81437L21.9667 8.06526L19.3914 10.6856L14.5497 5.81437H19.7622ZM22.1856 26.1878L19.9892 23.9914L22.1856 21.7547V26.1878ZM22.1856 19.8603L19.9857 17.6219L22.1856 15.3834V19.8603ZM22.1856 13.497L19.9696 11.2675L22.1856 9.01277V13.497ZM15.6468 27.1797H10.5446L13.0957 24.6286L15.6468 27.1797ZM9.38602 27.1782C9.38552 27.1786 9.38509 27.1792 9.38459 27.1797H4.17386L9.9103 21.4432L12.5156 24.0485L9.38602 27.1782ZM3.598 26.5954L1.04152 23.9943L9.91113 15.0734L12.5156 17.6778L3.598 26.5954ZM0.820312 6.0282C0.820312 5.98358 0.834094 5.94218 0.857555 5.90789L3.0293 8.07964L0.820312 10.3097V6.0282ZM0.820312 12.1982L3.02055 14.4365L0.820312 16.6751V12.1982ZM0.820312 18.6121L3.0345 20.8264L0.820312 23.0534V18.6121ZM3.60664 7.49689L1.92418 5.81437H5.2733L3.60664 7.49689ZM0.820312 26.9659V24.9395L3.02214 27.1797H1.03414C0.916234 27.1797 0.820312 27.0838 0.820312 26.9659ZM16.8069 27.1797L10.4904 20.8632L13.0956 18.258L15.087 20.2494C15.167 20.3294 15.272 20.3695 15.377 20.3695C15.4819 20.3695 15.5869 20.3294 15.667 20.2494C15.8272 20.0891 15.8272 19.8295 15.667 19.6693L10.4903 14.4925L13.0956 11.8872L21.9662 20.8074L19.4091 23.4114L17.0205 21.0228C16.8604 20.8627 16.6007 20.8627 16.4405 21.0228C16.2803 21.183 16.2803 21.4427 16.4405 21.6029L22.0131 27.1755C21.9997 27.1782 21.986 27.1797 21.9717 27.1797H16.8069ZM22.1856 6.0282V7.11648L20.9104 5.81437H21.9718C22.0897 5.81437 22.1856 5.9103 22.1856 6.0282Z" fill="black" fill-opacity="0.2"/>
<path d="M27.5898 16.0174C27.8164 16.0174 28 15.8338 28 15.6073V1.03414C28 0.463914 27.5361 0 26.9659 0H6.0282C5.45798 0 4.99406 0.463914 4.99406 1.03414V2.49703H3.53117C2.96095 2.49703 2.49703 2.96095 2.49703 3.53117V4.99406H1.03414C0.463914 4.99406 0 5.45803 0 6.0282V26.9659C0 27.5361 0.463914 28 1.03414 28H21.9718C22.542 28 23.0059 27.5361 23.0059 26.9659V25.503H24.4688C25.0391 25.503 25.503 25.0391 25.503 24.4688V23.0059H26.9659C27.5361 23.0059 28 22.542 28 21.9718V17.5213C28 17.2948 27.8164 17.1112 27.5898 17.1112C27.3633 17.1112 27.1797 17.2948 27.1797 17.5213V21.9718C27.1797 22.0897 27.0838 22.1856 26.9659 22.1856H25.503V3.53117C25.503 2.96095 25.0391 2.49703 24.4688 2.49703H12.46C12.2335 2.49703 12.0498 2.68062 12.0498 2.90719C12.0498 3.13376 12.2335 3.31734 12.46 3.31734H24.4688C24.5867 3.31734 24.6827 3.41327 24.6827 3.53117V24.4688C24.6827 24.5867 24.5867 24.6827 24.4688 24.6827H23.0059V6.0282C23.0059 5.45798 22.542 4.99406 21.9718 4.99406H3.31734V3.53117C3.31734 3.41327 3.41327 3.31734 3.53117 3.31734H10.5459C10.7725 3.31734 10.9561 3.13376 10.9561 2.90719C10.9561 2.68062 10.7725 2.49703 10.5459 2.49703H5.81437V1.03414C5.81437 0.916234 5.9103 0.820312 6.0282 0.820312H26.9659C27.0838 0.820312 27.1797 0.916234 27.1797 1.03414V15.6073C27.1797 15.8338 27.3633 16.0174 27.5898 16.0174ZM11.6377 5.81437L7.04298 10.4096C6.8828 10.5698 6.88286 10.8295 7.04298 10.9896C7.1231 11.0697 7.22805 11.1097 7.33299 11.1097C7.43794 11.1097 7.54294 11.0697 7.62305 10.9896L9.91047 8.70187L12.5156 11.307L3.61293 20.2446L1.01527 17.6469L3.88489 14.7272C3.88516 14.7269 3.88544 14.7267 3.88571 14.7264L6.26954 12.3425C6.42972 12.1823 6.42972 11.9226 6.26954 11.7625C6.10936 11.6023 5.84965 11.6023 5.68952 11.7625L3.59822 13.8538L1.04109 11.2525L6.42791 5.81437H11.6377ZM13.3931 5.81437L21.9645 14.4381L19.408 17.0393L10.4905 8.12186L12.7978 5.81437H13.3931ZM19.7622 5.81437L21.9667 8.06526L19.3914 10.6856L14.5497 5.81437H19.7622ZM22.1856 26.1878L19.9892 23.9914L22.1856 21.7547V26.1878ZM22.1856 19.8603L19.9857 17.6219L22.1856 15.3834V19.8603ZM22.1856 13.497L19.9696 11.2675L22.1856 9.01277V13.497ZM15.6468 27.1797H10.5446L13.0957 24.6286L15.6468 27.1797ZM9.38602 27.1782C9.38552 27.1786 9.38509 27.1792 9.38459 27.1797H4.17386L9.9103 21.4432L12.5156 24.0485L9.38602 27.1782ZM3.598 26.5954L1.04152 23.9943L9.91113 15.0734L12.5156 17.6778L3.598 26.5954ZM0.820312 6.0282C0.820312 5.98358 0.834094 5.94218 0.857555 5.90789L3.0293 8.07964L0.820312 10.3097V6.0282ZM0.820312 12.1982L3.02055 14.4365L0.820312 16.6751V12.1982ZM0.820312 18.6121L3.0345 20.8264L0.820312 23.0534V18.6121ZM3.60664 7.49689L1.92418 5.81437H5.2733L3.60664 7.49689ZM0.820312 26.9659V24.9395L3.02214 27.1797H1.03414C0.916234 27.1797 0.820312 27.0838 0.820312 26.9659ZM16.8069 27.1797L10.4904 20.8632L13.0956 18.258L15.087 20.2494C15.167 20.3294 15.272 20.3695 15.377 20.3695C15.4819 20.3695 15.5869 20.3294 15.667 20.2494C15.8272 20.0891 15.8272 19.8295 15.667 19.6693L10.4903 14.4925L13.0956 11.8872L21.9662 20.8074L19.4091 23.4114L17.0205 21.0228C16.8604 20.8627 16.6007 20.8627 16.4405 21.0228C16.2803 21.183 16.2803 21.4427 16.4405 21.6029L22.0131 27.1755C21.9997 27.1782 21.986 27.1797 21.9717 27.1797H16.8069ZM22.1856 6.0282V7.11648L20.9104 5.81437H21.9718C22.0897 5.81437 22.1856 5.9103 22.1856 6.0282Z" fill="black" fill-opacity="0.2"/>
<path d="M27.5898 16.0174C27.8164 16.0174 28 15.8338 28 15.6073V1.03414C28 0.463914 27.5361 0 26.9659 0H6.0282C5.45798 0 4.99406 0.463914 4.99406 1.03414V2.49703H3.53117C2.96095 2.49703 2.49703 2.96095 2.49703 3.53117V4.99406H1.03414C0.463914 4.99406 0 5.45803 0 6.0282V26.9659C0 27.5361 0.463914 28 1.03414 28H21.9718C22.542 28 23.0059 27.5361 23.0059 26.9659V25.503H24.4688C25.0391 25.503 25.503 25.0391 25.503 24.4688V23.0059H26.9659C27.5361 23.0059 28 22.542 28 21.9718V17.5213C28 17.2948 27.8164 17.1112 27.5898 17.1112C27.3633 17.1112 27.1797 17.2948 27.1797 17.5213V21.9718C27.1797 22.0897 27.0838 22.1856 26.9659 22.1856H25.503V3.53117C25.503 2.96095 25.0391 2.49703 24.4688 2.49703H12.46C12.2335 2.49703 12.0498 2.68062 12.0498 2.90719C12.0498 3.13376 12.2335 3.31734 12.46 3.31734H24.4688C24.5867 3.31734 24.6827 3.41327 24.6827 3.53117V24.4688C24.6827 24.5867 24.5867 24.6827 24.4688 24.6827H23.0059V6.0282C23.0059 5.45798 22.542 4.99406 21.9718 4.99406H3.31734V3.53117C3.31734 3.41327 3.41327 3.31734 3.53117 3.31734H10.5459C10.7725 3.31734 10.9561 3.13376 10.9561 2.90719C10.9561 2.68062 10.7725 2.49703 10.5459 2.49703H5.81437V1.03414C5.81437 0.916234 5.9103 0.820312 6.0282 0.820312H26.9659C27.0838 0.820312 27.1797 0.916234 27.1797 1.03414V15.6073C27.1797 15.8338 27.3633 16.0174 27.5898 16.0174ZM11.6377 5.81437L7.04298 10.4096C6.8828 10.5698 6.88286 10.8295 7.04298 10.9896C7.1231 11.0697 7.22805 11.1097 7.33299 11.1097C7.43794 11.1097 7.54294 11.0697 7.62305 10.9896L9.91047 8.70187L12.5156 11.307L3.61293 20.2446L1.01527 17.6469L3.88489 14.7272C3.88516 14.7269 3.88544 14.7267 3.88571 14.7264L6.26954 12.3425C6.42972 12.1823 6.42972 11.9226 6.26954 11.7625C6.10936 11.6023 5.84965 11.6023 5.68952 11.7625L3.59822 13.8538L1.04109 11.2525L6.42791 5.81437H11.6377ZM13.3931 5.81437L21.9645 14.4381L19.408 17.0393L10.4905 8.12186L12.7978 5.81437H13.3931ZM19.7622 5.81437L21.9667 8.06526L19.3914 10.6856L14.5497 5.81437H19.7622ZM22.1856 26.1878L19.9892 23.9914L22.1856 21.7547V26.1878ZM22.1856 19.8603L19.9857 17.6219L22.1856 15.3834V19.8603ZM22.1856 13.497L19.9696 11.2675L22.1856 9.01277V13.497ZM15.6468 27.1797H10.5446L13.0957 24.6286L15.6468 27.1797ZM9.38602 27.1782C9.38552 27.1786 9.38509 27.1792 9.38459 27.1797H4.17386L9.9103 21.4432L12.5156 24.0485L9.38602 27.1782ZM3.598 26.5954L1.04152 23.9943L9.91113 15.0734L12.5156 17.6778L3.598 26.5954ZM0.820312 6.0282C0.820312 5.98358 0.834094 5.94218 0.857555 5.90789L3.0293 8.07964L0.820312 10.3097V6.0282ZM0.820312 12.1982L3.02055 14.4365L0.820312 16.6751V12.1982ZM0.820312 18.6121L3.0345 20.8264L0.820312 23.0534V18.6121ZM3.60664 7.49689L1.92418 5.81437H5.2733L3.60664 7.49689ZM0.820312 26.9659V24.9395L3.02214 27.1797H1.03414C0.916234 27.1797 0.820312 27.0838 0.820312 26.9659ZM16.8069 27.1797L10.4904 20.8632L13.0956 18.258L15.087 20.2494C15.167 20.3294 15.272 20.3695 15.377 20.3695C15.4819 20.3695 15.5869 20.3294 15.667 20.2494C15.8272 20.0891 15.8272 19.8295 15.667 19.6693L10.4903 14.4925L13.0956 11.8872L21.9662 20.8074L19.4091 23.4114L17.0205 21.0228C16.8604 20.8627 16.6007 20.8627 16.4405 21.0228C16.2803 21.183 16.2803 21.4427 16.4405 21.6029L22.0131 27.1755C21.9997 27.1782 21.986 27.1797 21.9717 27.1797H16.8069ZM22.1856 6.0282V7.11648L20.9104 5.81437H21.9718C22.0897 5.81437 22.1856 5.9103 22.1856 6.0282Z" fill="black" fill-opacity="0.2"/>
<defs>
<linearGradient id="paint0_linear_6486_13023" x1="0" y1="14" x2="28" y2="14" gradientUnits="userSpaceOnUse">
<stop stop-color="#151544"/>
<stop offset="1" stop-color="#3535AA"/>
</linearGradient>
</defs>
</svg>
